<svg width="89" height="81" viewBox="0 0 89 81" fill="none" xmlns="http://www.w3.org/2000/svg">
<path fill-rule="evenodd" clip-rule="evenodd" d="M79.3049 0.617488C81.4941 0.439333 84.2609 0.697208 86.3907 2.6472L86.4137 2.66828C89.2229 5.28219 89.1949 9.29434 88.8231 12.0873C88.4082 15.2036 87.3027 18.6809 86.0571 21.8994C83.9295 27.3973 81.1416 32.7681 79.69 35.4687C79.7168 35.691 79.7415 35.9138 79.7642 36.137L80.8195 41.9391C81.2115 44.1037 81.4695 46.0659 81.5655 47.9066C81.5748 48.0126 81.5797 48.1184 81.5804 48.2237C81.6795 50.5672 81.5102 52.7241 81.0157 54.8782C80.1348 58.7148 78.2857 62.2224 75.8241 66.4541L75.8125 66.474C71.5491 73.7049 64.695 80.5706 56.1111 80.5706H32.8877C24.1951 80.5706 17.3394 73.7169 13.0653 66.4268L13.054 66.4075C10.6416 62.2382 8.82674 58.7429 7.964 54.8921C7.51158 52.8728 7.33842 50.8439 7.40127 48.6588C7.36014 48.271 7.37673 47.8726 7.45707 47.4756C7.56899 45.749 7.81593 43.9147 8.1782 41.9059L8.18006 41.8957L9.23483 36.1346C9.26451 35.8426 9.29773 35.5512 9.33447 35.2607C7.73208 32.4151 5.03666 27.2348 2.96984 21.939C1.71008 18.711 0.597606 15.2254 0.179134 12.1014C-0.195666 9.30349 -0.225968 5.28401 2.58509 2.66838L2.59372 2.66034C4.71843 0.695359 7.49046 0.439453 9.67295 0.617558C11.9366 0.80229 14.3691 1.51131 16.6806 2.39157C20.5698 3.87267 24.7146 6.07455 28.1967 8.10829C33.1968 5.50641 38.7822 4.12023 44.4994 4.1255C50.2148 4.12023 55.7985 5.50556 60.7975 8.10589C64.2667 6.07194 68.4018 3.87196 72.2891 2.39157C74.602 1.51078 77.0368 0.80207 79.3049 0.617488ZM76.5298 24.4863C74.559 20.3063 71.7814 16.5168 68.3164 13.3569C68.1889 13.2406 68.0607 13.1254 67.9317 13.0112C70.3013 11.7325 72.7541 10.5423 75.0294 9.67584C77.0371 8.91129 78.6979 8.48092 79.929 8.38073C80.5952 8.32651 80.9578 8.38046 81.1277 8.42316C81.2014 8.65632 81.3735 9.37812 81.1505 11.0533C80.8565 13.2613 80.0074 16.066 78.8435 19.0734C78.1284 20.9212 77.327 22.7645 76.5298 24.4863ZM58.4919 15.7162C54.2766 13.2386 49.4532 11.909 44.5034 11.9141H44.4954C39.5456 11.909 34.7221 13.2386 30.5069 15.7162C30.4036 15.7951 30.2959 15.8691 30.1839 15.938C26.7683 18.0381 23.8506 20.8646 21.6356 24.2193C19.4206 27.574 17.9618 31.3756 17.3616 35.3575C17.2974 35.7839 17.1651 36.1877 16.9759 36.5571C16.9567 36.7242 16.9389 36.8916 16.9227 37.0593C16.912 37.1692 16.8968 37.2787 16.8769 37.3873L15.795 43.2964L15.794 43.3018C15.6495 44.1035 15.5298 44.851 15.4338 45.5521L30.4804 50.6309C32.5071 51.315 33.5988 53.5225 32.9189 55.5616C32.239 57.6007 30.0449 58.6991 28.0183 58.0151L15.6814 53.8509C15.9285 54.7676 16.2654 55.7024 16.7115 56.7217L30.0992 59.7532C32.1847 60.2255 33.4948 62.3093 33.0255 64.4075C32.5561 66.5058 30.485 67.824 28.3995 67.3517L22.0314 65.9097C25.4141 70.3313 29.2708 72.782 32.8877 72.782H56.1111C59.6261 72.782 63.4628 70.3416 66.8468 65.937L60.5993 67.3517C58.5138 67.824 56.4427 66.5058 55.9733 64.4075C55.5039 62.3093 56.8141 60.2255 58.8996 59.7532L72.2214 56.7366C72.6833 55.7056 73.0319 54.7671 73.288 53.8518L60.9829 58.0142C58.9567 58.6997 56.7619 57.6026 56.0807 55.564C55.3994 53.5254 56.4898 51.3171 58.516 50.6317L73.5598 45.5429C73.4647 44.8562 73.3466 44.1239 73.2043 43.3381L72.1211 37.3829C72.1016 37.2757 72.0866 37.1677 72.0761 37.0593C72.0357 36.642 71.986 36.2266 71.9272 35.8132C71.8878 35.6699 71.8563 35.5232 71.8331 35.3736C71.2137 31.3768 69.7289 27.5657 67.4839 24.21C65.2389 20.8543 62.2885 18.0358 58.8413 15.9541C58.7198 15.8807 58.6032 15.8012 58.4919 15.7162ZM44.4994 4.1255L44.5034 4.1255L44.4994 8.0198L44.4954 4.1255L44.4994 4.1255ZM21.0597 13.0177C18.6798 11.7364 16.2196 10.5439 13.9403 9.67584C11.9312 8.91076 10.273 8.4807 9.04713 8.38066C8.39557 8.32749 8.03988 8.37875 7.87286 8.41963C7.79984 8.65006 7.62483 9.37338 7.85091 11.0611C8.14728 13.2736 9.00154 16.0845 10.1754 19.0923C10.8896 20.9222 11.6902 22.7457 12.4882 24.4456C14.4578 20.2817 17.2286 16.5066 20.6824 13.3569C20.8074 13.2428 20.9332 13.1298 21.0597 13.0177ZM30.4492 33.0601C32.5869 33.0601 34.3198 34.8037 34.3198 36.9544V40.7319C34.3198 42.8827 32.5869 44.6262 30.4492 44.6262C28.3115 44.6262 26.5786 42.8827 26.5786 40.7319V36.9544C26.5786 34.8037 28.3115 33.0601 30.4492 33.0601ZM58.5496 33.0601C60.6872 33.0601 62.4201 34.8037 62.4201 36.9544V40.7319C62.4201 42.8827 60.6872 44.6262 58.5496 44.6262C56.4119 44.6262 54.679 42.8827 54.679 40.7319V36.9544C54.679 34.8037 56.4119 33.0601 58.5496 33.0601ZM43.7253 48.2089C43.4077 48.2089 43.0901 48.2021 42.7424 48.194L42.6725 48.1924C42.3577 48.185 42.0051 48.1767 41.6631 48.1761C40.9755 48.1748 39.9974 48.1968 39.0231 48.4443C37.9713 48.7115 36.6691 49.3073 35.7103 50.6299C34.7902 51.8992 34.552 53.3387 34.552 54.5566C34.552 56.7074 36.2849 58.4509 38.4226 58.4509C39.2425 58.4509 40.0029 58.1944 40.6288 57.7568V65.227C40.6288 67.3778 42.3617 69.1213 44.4994 69.1213C46.637 69.1213 48.37 67.3778 48.37 65.227V57.7568C48.9958 58.1944 49.7562 58.4509 50.5762 58.4509C52.7138 58.4509 54.4468 56.7074 54.4468 54.5566C54.4468 53.3387 54.2086 51.8992 53.2884 50.6299C52.3297 49.3073 51.0275 48.7115 49.9756 48.4443C49.0014 48.1968 48.0233 48.1748 47.3357 48.1761C46.9936 48.1767 46.6411 48.185 46.3263 48.1924L46.2563 48.194C45.9086 48.2021 45.5911 48.2089 45.2735 48.2089H43.7253Z" fill="#264236"/>
</svg>
